<?xml version="1.0" encoding="UTF-8"?>
<svg version="1.1" viewBox="0 0 1242 1518" width="1242" height="1518" xmlns="http://www.w3.org/2000/svg">
<path transform="translate(592)" d="m0 0h43l29 3 36 7 27 8 28 10 29 13 25 13 20 12 22 15 17 13 13 11 8 7 10 9 26 26 7 8 12 14 13 17 12 16 18 27 13 21 13 23 14 27 14 30 12 30 10 28 9 28 11 42 9 43 6 38 4 33 3 38 1 24v48l-2 40-4 40-5 35-7 38-9 39-12 42-13 38-13 32-12 26-14 28-13 23-15 24-15 22-14 19-13 16-9 11-10 11-7 8-29 29-11 9-9 8-17 13-18 13-23 14-18 10-30 15 58 3 31 3 30 5 26 6 17 6 14 7 4 5 1 2v10l-4 6-6 4-6 1h-30l-21-2-37-6h-16l-9 3-3 4v12l4 45 2 43 3 11 4 6 7 6 17 8 27 10 29 8 27 6 33 5 31 3h38l23-3 23-5 24-7 25-9 18-8 16-9 12-9 7-6 7-11 6-18 5-27 2-20 1-39-9 7-14 12-21 14-16 9-19 9-27 9-22 5-21 3-28 2h-43l-36-3-30-5-26-6-25-8-13-5-15-8-12-8-4-5v-9l4-6 4-3h11l42 8 21 3h15l16-3 9-4 6-5 4-10 7 1 3 4 1 10-1 50h16l18 1h26l24-2 24-4 24-6 26-9 24-11 19-11 13-10 11-10 11-14 9-16 6-11 4-2 1 5v11l-13 110-5 27-5 10-11 11-16 12-19 12-15 8-25 10-23 7-20 4-26 3-21 1h-25l-31-2-29-4-28-6-24-7-20-7-18-8-17-9-13-9-7-7-5-10-1-4v-17l-1-3-9-3-38-6-43-5-40-3-24-1h-61l-40 2-47 5-66 9-5 2-2 6v15l-4 10-9 10-14 10-17 10-21 9-24 8-32 8-31 5-22 2h-54l-29-3-26-5-25-7-25-10-23-12-18-12-12-11-10-10-2-6-15-105-4-35v-10l1-6 4 2 9 16 12 17 12 13 7 7 16 12 15 9 19 9 27 9 26 6 29 4 12 1h62l4-1 1-58 5-5h5l8 10 9 7 10 4 5 1h23l39-7 13-3-32 5-12 1h-22l-13-2-12-5-5-4-1-2 1-9 9-10 14-8 13-5 26-6 20-3 39-3 53-3-19-10-25-13-21-13-16-11-12-9-14-11-14-12-12-11-29-29-7-8-11-13-11-14-14-19-13-19-14-22-15-26-15-29-14-30-12-30-12-34-10-33-11-44-7-35-6-39-4-36-2-28-1-24v-49l2-39 4-42 6-41 7-37 9-38 9-31 12-36 13-33 13-29 16-32 13-23 14-23 10-15 14-20 13-17 9-11 12-14 11-12 27-27 8-7 13-11 16-12 17-12 21-13 18-10 23-12 28-12 36-12 30-7 25-4zm6 13-31 3-28 5-27 7-30 10-26 11-28 14-17 10-21 14-16 12-10 8-14 12-12 11-24 24-7 8-13 15-11 14-12 16-14 20-14 22-13 22-13 24-16 33-16 39-14 41-12 43-9 41-7 41-5 39-3 38-1 23v49l2 38 4 41 6 41 7 37 12 48 9 29 11 32 13 32 12 26 15 30 14 24 12 20 15 22 14 19 13 16 9 11 24 26 9 9 8 7 12 11 11 9 18 14 30 20 19 11 23 12 26 11 33 11 25 6 23 4 32 3h38l31-3 28-5 27-7 29-10 27-12 25-13 21-13 16-11 16-12 16-13 14-12 8-8 8-7 9-9 7-8 12-13 9-11 12-15 13-18 16-24 15-25 10-18 14-27 15-33 13-33 14-41 10-36 7-30 6-31 5-33 4-36 2-28 1-24v-39l-2-45-4-44-6-41-7-36-9-38-10-34-13-38-13-32-11-24-17-34-14-24-13-21-13-19-13-18-11-14-11-13-9-10-7-8-27-27-11-9-10-9-16-12-17-12-19-12-18-10-21-11-28-12-33-11-29-7-26-4-23-2zm-155 1283-31 1-34 3-31 5-19 5-21 8-4 5-1 3 5 5 7 2 17 1 22-3 35-6 9-1h9l9 2 7 4 5 8 2 6v22l-2 30v13l12-1 36-5 43-4 38-2 48-1h37l40 1 48 3 38 4 36 5 3-2v-12l-4-31-1-19 2-10 4-6 5-4 7-2h16l45 8 17 2h28l5-5-2-7-9-6-24-8-23-5-24-3-33-2h-82l-15 3-30 7-23 4-18 2-15 1h-37l-24-2-32-5-25-6-11-3-7-1-37-1zm-414 38-1 1v26l1 22 3 24 5 21 7 14 9 10 10 9 16 10 16 8 20 8 25 8 25 6 24 4 23 2h33l31-3 28-5 27-7 36-12 20-8 14-8 10-9 4-6 3-12 1-48v-50l-4-4h-12l-7 1 8 4 2 7v10l-3 5-8 7-15 9-17 8-19 6-23 5-37 5-28 2h-42l-36-3-30-5-23-6-20-7-25-12-18-11-14-11-13-12-4-3zm361 3v1h5v-1zm2 8-27 9-14 3-8 1h-29l-17-3-16-5h-4v42l38-2 21-3 21-6 18-8 16-9 6-5 4-6-1-6-2-2zm448 1-6 4-1 5 4 5 15 8 49 14 30 7 18 2h7v-17l-2-25-5 1-14 5h-38l-26-3-26-6z" fill="#fff"/>
<path transform="translate(612,234)" d="m0 0h11l20 3 22 6 16 7 15 8 12 9 13 8 18 10 17 12 13 11 10 10 11 15 8 16 5 15 8 39 4 13 7 11 5 12 2 8 1 16-2 15-5 17-8 18-16 31-10 16-5 11-3 13-1 8v31l6-2h17l12 5 9 6 10 9 7 11 5 12 2 9 1 17-2 22-5 26-6 11-10 10-15 9-15 7-17 5-6 1h-31l9 29 7 17 9 16 11 14 9 10 7 8 6 11 4 11 1 5v28l-5 24-6 20-6 16-12 25-11 18-10 14-9 11-12 14-10 9-15 10-13 6-14 4-23 3-11 1h-36l-24-3-22-5-24-8-18-8-16-10-10-7 1-5 2-5-3-8v-12l8-17 7-11 9-12 10-11 7-6 7-8 10-13 9-15 8-17 6-19 5-24 2-19v-11l-13 2-21 3h-17l-19-3-12-5-9-8-4-9-1-5v-20l-1-4-9-3-9-4-3-9-3-7-9-7-1-1v-8l2-9-7 3-2 1h-8l-10-5-4-6v-12l8-82v-14l-4-13-2-6-1-24-10-1-10-5-7-7-6-11-2-9-1-15 2-14 4-11 6-11 11-12 7-7 11-9 8-8 13-26 13-22 10-14 14-18 13-21 10-19 13-30 8-19 10-19 12-17 12-14 9-9 11-7 12-5zm-1 14-12 3-14 7-10 9-9 10-11 19-9 17-13 28-11 22-13 23-14 22-12 16-22 33-6 10-3 7 5 1h25l10-4 11-9 8-7 2-1-4 14-1 12 2 13 8 16 9 11 11 9 14 8 14 5 11 2h17l13-4 10-6 9-9 8-13 2-6-4 2-7 8-13 9-13 5-5 1h-20l-15-4-13-7-10-8-10-11-7-14-1-4v-17l5-15 12-24 6-6 5-2h13l16 5 7 5 3 7v13l-4 7-8 5-11 1 5-13v-6l-4-4-3-1h-10l-8 5-6 12-3 12v14l4 12 6 8 7 7 14 8 10 3 12 1 14-3 11-6 8-8 4-8 1-3v-14l-6-20-7-15-9-16-11-15-3-9 10 2 10 9 11 21 10 25 10 26 6 9 8 7 11 5 15 3-2-12-7-19-8-15-11-18-7-16-4-17-1-46-4-59-1-10h4l3 18 1 11 1 79 3 15 5 13 8 14 9 14 9 20 6 17 7-6 11-12 6-2 15 1 27 3h4l-2 29v14h35l9-3 8-7 10-17 7-15 3-11 1-14-2-12-8-16-8-11-5-10-2-8v-8l3-6v-8l-5-16-7-12-8-10-12-14-11-11-11-9-13-10-19-11-16-9-13-11-14-8-21-7-20-4zm-119 234-11 5-28 2-12 3-3 2 5 4 10 4 13 4 10 6 4 5 1 2v11l-2 5-2 1-2-5-4-6-3 3v2l-19-4 3 9 8 12 5 6 11 9 10 6 11 4 5 1h11l6-2-2-2-43-15-5-5-2-3 10 1 21 6 17 7 30 15 25 11 11 7 14 15 6 3 3-1 4-25 4-11-1-8-6-9-3-2-16 1h-12l-14-2-15-5-13-7-11-9-9-10-8-13-6-16-3-11zm211 6-6 4-6 12-4 16-6 10-9 10-8 9-3 5 1 3 11 5 18 4 7 4 4 7 3 10 6-2 15-9 7-2h8l23 5h8l4-4 18-36v-2l-28 1-17 2-14 5-4 2-1-4 9-12 5-8 2-8v-9l-2-8-4-4-24-6zm-281 37m12-29-11 8-8 8-6 10-4 13-1 7v12l3 11 5 9 6 7 6 4h2l1-2 2-33 1-7h4l2 59 2 13 6 16 2 11v13l-11 75v9l4 5 2 1 9-1 17-6 6-4 1-7-5-7 8 3 4 5 1 2v9l-3 5-6 3-6 2-3 13 3 5 5 3h28l4 2 1 4-2 2-19 1-5 3 1 5 5 3 6 4 4 5 3 8 4 18 4 8 4 5 10 5 9 2h36l22-4 16-5 16-7 16-9 26-20 5-1-5 7-12 8-20 14-21 13-8 6-4 6-8 45-6 24-9 21-10 16-11 14-12 13-10 10-9 11-10 13-5 11-2 14 1 3 10-21 7-8 20-9 13-9 13-12 10-9 15-14 11-9 10-9 20-15 19-12 22-12 23-10 36-12 43-10-2-4-10-13-9-15-8-17-9-27-5-16-6-11-11-12-7-8-5-10-4-11 4 1 10 14 10 9 12 7 12 4 17 2 14-2 14-5 15-8 14-11 8-8 4-5 1-6-1-6 4-14 1-6v-13l-4-16-8-16-9-11-6-5-10-4h-12l-10 2h-9l-1-1v-41l-26-5-7-1h-13l-14 10-8 7h-2l-5-19-4-6-6-5-2-1h-10l-9 6-4 7-1 9 4 8 8 8 4 2 7-1 5-3-2 12v17l4 11 7 9 9 7 13 5 5 1h17l14-4 13-8 9-7 2-1-3 9-6 8-10 7-13 6-11 2h-14l-13-3-9-5-8-7-7-11-6-16-3-15-16-8-7-5-3-6v-13l4-12 4-9v-2l-5-4-3-7 1-9 4-6 8-7 2-5v-11l-4-6-5-3-7 1-6 4-11 14-1 5 8 17v7l-11 9-8 11-3 8v10l4 8 8 7 7 3 10 1 4-1-5 8-5 3h-10l-12-5-12-2 1 5 4 8 9 9 12 6 16 5 5 3h2v7l-1 1h-7l-12-3-13-7-10-8-8-11-6-10-3-2h-6l-1 6 8 16 9 14 11 12 12 9 15 7 13 3 40 4 10 3 8 6 3 13 9 10 10 7 13 5 11 2h11l15-3 16-8 10-9 7-11 5-13 3 1v8l-5 12-7 12-10 10-12 7-9 3-5 1h-24l-16-4-16-8-12-11-8-16-4-6-7 1-4 5-3 10-4 6-10 5h-11v-7l4-4 14-6 6-5 1-6-10 1-9 2-7-4-16-5-12-5-12-8-12-11-10-14-15-27-10-16-10-5-5-5-9-12-8-7-7-3-31-2-16-4-14-7-10-9-8-11-9-16-5-9-5 1-10 9-11 19-3 2v-13l7-14 4-5v-2l-4 1v-8l4-6 10-9 4-7zm186 47-4 4 1 8 5 9 4-2 2-2v-6l-7-11zm158 341-20 2-25 6-24 8-25 11-22 12-24 16-13 10-11 9-14 12-22 22-11 9-11 8-16 8-12 7-6 7-4 10-5 11v8l7 8 6 5 2 1h7l10-4-1 2v6l4 4 14 6 22 6 25 4 11 1h39l19-2 15-4 16-8 11-8 10-9 6-9-8-1 6-8 4-3 7-3 4-5 16-28 10-18v-11-3l13-27 3-11-1-7-12-3 1-3 12-8 2-3v-10l-5-8-2-2 1-10-3-3zm-275 165 1 2z" fill="#fff"/>
<path transform="translate(595,19)" d="m0 0h37l32 3 28 5 27 7 26 9 23 10 24 12 17 10 24 16 16 12 10 8 13 11 10 9 13 12 11 11 7 8 11 12 9 11 14 18 12 17 12 18 13 21 15 27 18 36 14 33 11 29 12 37 11 42 8 39 6 37 5 46 2 29 1 26v40l-2 42-4 41-6 40-7 36-11 44-12 39-11 31-14 34-14 30-12 23-14 24-14 22-12 17-13 17-13 16-12 14-15 16-21 21-8 7-15 13-13 10-18 13-17 11-21 12-22 11-27 11-25 8-24 6-29 5-18 2-16 1h-31l-25-2-31-5-28-7-29-10-23-10-16-8-19-10-19-12-16-11-12-9-10-8-13-11-10-9-15-14-7-7-7-8-11-12-9-11-12-15-13-18-18-27-15-25-12-22-8-16-13-27-11-27-13-36-11-36-10-40-7-35-6-38-4-37-2-28-1-27v-37l2-45 4-43 6-42 7-36 7-30 12-41 11-32 12-30 13-29 17-34 13-23 15-24 13-19 14-19 14-17 12-14 15-16 15-15 8-7 10-9 14-11 17-13 24-16 17-10 23-12 17-8 24-9 26-8 28-6 30-4zm11 12-27 2-32 5-28 7-30 10-24 10-23 11-24 14-12 8-14 10-14 11-13 11-12 11-28 28-9 11-8 9-11 14-14 19-22 33-13 22-10 18-9 17-12 26-14 34-15 44-12 44-8 38-6 35-5 40-3 36-1 21v56l2 36 4 39 6 41 8 40 10 40 11 35 11 31 12 29 14 30 13 25 14 24 12 19 8 12 10 14 13 17 11 13 9 11 8 8 7 8 14 14 8 7 11 10 14 11 13 10 22 15 20 12 23 12 17 8 27 10 28 8 26 5 24 3 16 1h30l25-2 31-5 24-6 30-10 25-11 22-11 20-12 22-15 17-13 11-9 14-12 17-16 10-10 7-8 10-11 9-11 14-18 12-17 10-15 13-21 15-27 18-36 12-28 10-26 12-35 10-36 7-30 7-37 5-35 4-41 2-39v-24h2l-3-41-5-56-5-39-7-39-9-38-12-40-12-34-13-31-13-28-15-29-14-24-12-19-13-19-14-19-11-13-9-11-14-15-24-24-11-9-9-8-20-15-27-18-17-10-23-12-22-10-28-10-26-7-27-5-18-2-17-1z" fill="#fff"/>
<path transform="translate(596,142)" d="m0 0h37l25 3 22 5 20 6 24 10 25 13 19 12 19 14 13 11 10 9 13 12 11 12 9 10 11 14 14 19 13 20 14 24 12 23 12 25 11 27 12 34 10 36 7 31 7 43 4 38 4 52v12l-1 11-1 31-3 38-5 38-6 32-7 30-10 35-11 32-11 27-11 24-11 22-16 27-12 18-14 19-9 11-12 14-14 15-12 12-8 7-13 11-16 12-17 11-16 9-23 11-25 9-24 6-26 4-11 1h-34l-25-3-23-5-19-6-16-6-25-12-22-13-17-12-14-11-14-12-16-15-12-13-13-15-15-20-18-27-9-15-12-22-8-16-10-21-12-30-12-36-8-29-8-36-6-36-4-34-2-25-1-20v-57l2-33 4-36 7-41 7-31 8-30 12-37 13-33 12-26 10-20 14-24 16-24 14-19 11-13 12-14 28-28 11-9 15-12 24-16 22-12 23-10 21-7 25-6 20-3zm0 13-24 3-23 5-30 10-29 14-20 12-19 14-13 11-10 9-13 12-11 12-10 11-11 14-10 13-18 27-10 17-13 24-13 28-12 31-12 36-10 37-8 39-5 33-4 40-1 18v62l3 42 5 40 6 34 9 38 9 30 10 29 13 31 16 33 14 25 14 22 13 18 11 14 11 13 12 13 13 13 8 7 17 14 20 14 20 12 15 8 24 10 26 8 20 4 17 2h38l23-3 23-5 30-10 24-11 21-12 20-14 11-9 14-12 25-25 7-8 14-17 14-19 10-15 11-18 9-16 12-23 11-25 10-26 11-33 10-37 8-37 6-39 4-38 2-30v-32l-4-55-5-44-6-34-7-31-10-35-10-29-12-29-13-28-15-28-16-26-12-17-10-13-11-13-7-8-12-13-8-8-8-7-14-12-19-14-19-12-18-10-20-9-30-10-24-5-17-2z" fill="#fff"/>
<path transform="translate(183,1080)" d="m0 0h3l3 11-4 58-3 54-4 20-7 16-8 12-10 11-17 13-16 10-28 19-10 8-8 8-9 17-1 1h-5l-5-4-10-14-9-14-5-10-4-15v-22l4-15 5-12 10-16 9-11 11-12 11-9 15-11 18-10 16-8 14-9 10-8 6-5 9-11 8-13 6-14zm-10 56-14 11-15 11-23 13-21 11-16 11-12 11-10 10-11 15-6 10-5 14-1 5v18l4 15 8 17 5 8 9-6 16-12 14-10 36-26 13-10 10-9 6-7 7-14 3-12 4-67v-7z" fill="#fff"/>
<path transform="translate(1047,1079)" d="m0 0 4 2 5 17 8 16 10 13 13 13 15 11 20 13 24 15 18 12 14 12 11 13 9 16 6 16 3 13v15l-5 21-7 16-7 11-9 10-10 8h-2l-4-15-7-11-10-9-14-10-18-14-16-12-16-13-12-12-9-13-5-11-3-11-8-104v-20zm11 53 1 20 2 29 1 22 3 15 5 12 8 11 7 7 20 15 36 26 21 16 10 8 6 1 6-8 7-17 3-11 1-13-3-16-8-16-10-14-13-14-14-11-21-14-22-13-20-12-11-9-7-6-6-8z" fill="#fff"/>
<path transform="translate(1229,933)" d="m0 0 3 1v12l-6 50-6 41-5 16-7 12-11 12-12 9-26 14-21 11-10 8-7 8-9 17-3 2-6-1-11-7-12-10-8-10-6-10-5-15-1-6v-19l4-15 7-14 10-12 11-8 27-14 24-12 28-13 14-8 14-10 10-9 7-7 7-8zm-11 27-16 12-21 14-19 11-23 12-24 11-12 7-11 9-8 9-6 12-3 12v17l3 12 7 14 9 10 8 7h2l8-11 11-9 13-8 26-15 16-11 13-10 9-9 7-14 3-12 7-39 2-18v-13z" fill="#fff"/>
<path transform="translate(0,936)" d="m0 0 5 1 14 13 20 15 18 11 18 10 24 12 26 12 14 9 10 9 9 10 6 10 6 16 2 11v15l-3 13-6 12-8 10-12 12-11 7-9 4h-2l-5-13-7-11-9-8-15-9-23-12-18-12-13-11-9-12-6-13-3-11-13-94zm14 25 1 13 7 55 5 15 6 11 11 12 8 7 17 11 29 16 15 10 9 8 7 10 5-2 7-7 7-10 7-14 3-12v-17l-4-13-7-11-9-9-16-11-21-12-29-15-22-12-14-8-19-14z" fill="#fff"/>
<path transform="translate(751,1153)" d="m0 0h4l11 24 13 30 4 9-1 4-11 5-4-1-13-29 2 17 2 11v6l-3 3-7 3h-6l-18-22-2-1 11 26v3l-13 6h-2l-14-31-15-35 4-3 12-5h8l7 7 9 11 8 9-4-28v-9l4-4zm1 38 1 2z" fill="#fff"/>
<path transform="translate(852,1072)" d="m0 0h7l10 5 7 8 1 3v14l34 6-5 10-5 4-4 1h-9l-21-3-6 3-2 3 13 12 6 6-2 4-9 10-8-6-13-13-8-7-7-7-8-7-10-9 1-4 17-16 8-8 10-8zm-2 20-6 5-7 8 6 7 4 3 8-8 4-6v-7l-2-2z" fill="#fff"/>
<path transform="translate(439,1129)" d="m0 0 4 1 22 14 12 9 5 6 1 3v10l-5 10-5 4-4 2-10 1-2-1v36l-10-3-5-4-2-4-1-7-1-19-5-11h-3l-2 5-12 18-4-1-11-7 1-5 13-20 14-22 9-14zm7 22-7 12 13 8 7 1 4-2 1-4-2-5-15-10z" fill="#fff"/>
<path transform="translate(242,334)" d="m0 0h11l10 4 5 6 2 5 1 6 28-5 7-1-2 12-4 6-10 4-19 4-6 2-2 6 15 7 10 5-1 5-5 11-9-3-46-19-13-6 1-5 14-30 6-10 4-3zm5 19-4 2-8 17 3 2 10 4 5-11 1-3v-7l-3-4z" fill="#fff"/>
<path transform="translate(350,1035)" d="m0 0 7 6 3 3v9l-13 35v2l16-12 13-10 4 2 7 9v3l-17 13-15 12-13 10-9 7-5-1-7-8v-8l12-36-17 13-11 8-4-2-7-9 2-4 15-12 13-10 18-14z" fill="#fff"/>
<path transform="translate(172,566)" d="m0 0 61 4 11 1v15l-5 5-26 14-6 4v1l35 3-1 16h-16l-57-4v-13l4-6 7-4 21-11 6-4 1-2h-13l-24-2 1-16z" fill="#fff"/>
<path transform="translate(987,642)" d="m0 0h74l-2 31-3 21-7 6-6 2h-11l-7-3-6-7-2-3-20 12-9 6h-2l-1-5v-12l7-8 13-8 5-4 5-8v-2l-28-2zm43 18v18l5 5 5-1 3-3 1-5v-8l-1-6z" fill="#fff"/>
<path transform="translate(513,1171)" d="m0 0 13 1 10 4 6 4 8 9 3 8 1 12-3 14-5 10-8 8-9 5-4 1h-15l-12-4-9-7-6-9-2-6v-18l4-11 6-9 9-8zm4 16-8 3-6 9-4 9v10l4 8 6 4 3 1h8l7-4 6-12 3-11-1-7-5-6-6-3z" fill="#fff"/>
<path transform="translate(335,190)" d="m0 0h14l10 4 9 6 10 10 5 10 1 4v9l-4 10-10 13-13 15-5-2-10-9-11-9-13-11-11-9-7-6 2-4 12-14 14-14zm3 17-5 3-7 7-2 5 13 11 11 9 8 6 9-10 2-4v-6l-5-9-9-8-10-4z" fill="#fff"/>
<path transform="translate(453,94)" d="m0 0h13l10 5 7 6 7 10 4 10 1 4v16l-4 8-9 8-22 12-2 1h-7l-8-13-15-27-11-19v-3l33-17zm0 17-10 5-3 3 13 23 7 12 10-4 7-6 1-2v-8l-7-14-6-7-3-2z" fill="#fff"/>
<path transform="translate(1014,561)" d="m0 0h16l10 3 8 5 6 7 4 10 1 14-2 10-5 9-8 7-12 5-7 1h-11l-12-3-9-6-6-8-3-8-1-5v-13l4-12 7-8 9-5 5-2zm3 18-10 3-5 4-3 6v10l4 6 3 3 10 3h9l11-4 6-6 1-3v-9l-3-6-6-5-6-2z" fill="#fff"/>
<path transform="translate(1022,737)" d="m0 0h2l4 11 1 5v18l-5 19-7 17 8 1 10 3 2 3v7l-3 5-2 1h-8l-10-2v24l-2 19-5 13-7 9-5 4-3-8-1-6v-21l5-21 6-14-5-2-10-7-2-2v-5l4-3 16-1v-16l2-19 5-17 8-13z" fill="#fff"/>
<path transform="translate(564,57)" d="m0 0h12l9 3 6 5 6 9 4 14v18l-3 9-8 9-9 4-20 4-17 2-10-65 1-7 7-2zm-5 15-5 3 1 13 4 26 1 1h9l9-3 4-4 1-3v-13l-4-13-8-6-4-1z" fill="#fff"/>
<path transform="translate(1035,487)" d="m0 0h6l3 3 5 30v7l-3 10-6 7-10 6-9 3-6 1h-13l-9-2-8-5-6-7-3-9-5-27v-6l52-9zm-6 19-40 7 1 11 3 8 5 3 4 1h13l10-4 7-6 1-9-2-11z" fill="#fff"/>
<path transform="translate(201,738)" d="m0 0 4 2 8 9 5 13 2 11v32l9-2 8 1 5 3-1 6-5 5-10 5h-3l8 18 5 19v18l-3 12-2 4-4-2-6-9-5-11-3-13-2-27v-7l-3 1h-9l-7-6-1-7 4-3 10-3h3l-7-19-3-13-1-8v-11l3-16z" fill="#fff"/>
<path transform="translate(804,1115)" d="m0 0 4 1 7 9-2 4-19 14-7 5 2 5 2 3 4-1 18-13 5-4h3l8 11-5 5-17 13-4 3 2 4 5 7 7-4 19-14 4-3 4 2 6 8-1 4-18 13-19 14-5 4h-3l-14-19-16-21-12-16 1-4 38-28z" fill="#fff"/>
<path transform="translate(315,979)" d="m0 0 4 1 15 25 11 19-2 4-9 5h-3l-12-21-5-8v-2l-9 5 2 6 13 22v3l-12 7-3-3-15-25h-3l-8 5h-2l15 26 4 8-11 7-4-1-15-26-12-20 4-4 23-13 24-14z" fill="#fff"/>
<path transform="translate(737,76)" d="m0 0 6 2 36 17 8 4-3 9-3 5-9-3-26-12-1 5-2 4 19 10 11 5-3 9-3 5-5-1-26-12-7 13 5 1 29 14-1 5-5 10-20-9-27-13-4-2 2-6 14-29 13-28z" fill="#fff"/>
<path transform="translate(208,399)" d="m0 0 8 1 7 2-2 10-7 24v2l10 3 2-9 7-22 4-1 11 3-1 8-7 24v2l13 3 11-35 10 2 5 2-2 9-13 43-2 2-67-20-2-1 1-7 13-43z" fill="#fff"/>
<path transform="translate(879,187)" d="m0 0h12l10 5 8 8 5 10 1 3v11l-4 7-5 5-9-9-1-7v-8l-4-6-7-1 1 9 7 15 1 3v13l-5 8-6 5-9 3-9-1-7-4-9-9-7-10-2-5v-10l5-10 4-4 4 1 9 9-2 5-2 7 3 7 5 3 8 1v-7l-5-13-4-11v-8l4-8 8-6z" fill="#fff"/>
<path transform="translate(273,273)" d="m0 0h11l7 3 1 2-6 12-2 1-9 1-5 6-1 8 4 1 8-7 7-7 8-6 6-2h9l10 5 5 6 3 8v10l-3 9-10 13-8 5-3 1h-11l-9-3 3-9 3-6 11-1 6-3 2-4v-7l-1-5-9 4-11 11-10 6-10 1-8-3-5-4-4-8v-11l8-16 6-7z" fill="#fff"/>
<path transform="translate(618,53)" d="m0 0h10l43 4 1 1v15l-38-3v9l-1 2 16 1 19 2-1 15h-12l-24-2v12l-1 2 32 3 7 1-1 13-1 2-18-1-32-3-6-1 1-16 5-53z" fill="#fff"/>
<path transform="translate(931,936)" d="m0 0h14l60 2 2 1-2 11-5 5-13 1-3 1-7 16v6l7 9v8l-6 12h-2l-7-8-12-13-31-31-1-2v-8l3-8zm18 18 6 7 7 5 5-10-3-2z" fill="#fff"/>
<path transform="translate(382,141)" d="m0 0 6 1 18 10 29 15 16 9v2l-8 7-2 2h-10l-6-4-6 1-8 7-5 5-1 6 3 6v6l-10 9-4 1-7-19-17-48v-7l9-8zm9 23 3 10 3 7 5-3 5-5-8-5z" fill="#fff"/>
<path transform="translate(951,425)" d="m0 0h10l63 6 5 3 3 7v9l-8 7-19 14-21 16-12 9h-2l-4-12 1-7 5-5 5-2v-8l-4-13-4-5-9-1-4-2-4-8zm38 20 2 9 2 4 14-10-1-2z" fill="#fff"/>
<path transform="translate(650,1186)" d="m0 0h9l4 4 15 25 21 36v2l-11 2h-7l-4-4-5-8-7-1-15 3-3 4-4 9-3 3-10 2h-5l2-12 14-58 3-5zm4 25-3 13v4l11-1v-4l-6-11z" fill="#fff"/>
<path transform="translate(938,254)" d="m0 0h7l5 4 4 8-1 5-11 16-26 36-4 6-4-1-6-7-1-2v-6l6-10-1-6-5-8-5-6-2-1-15 1-5-6-4-7v-2l12-3zm-11 19-14 3 1 5 4 6 4-2 8-11z" fill="#fff"/>
<path transform="translate(168,642)" d="m0 0h59l8 5 5 7 2 7v19l-4 10-7 6-4 2-25 2-33 1v-18l48-2 6-3 3-7-1-7-4-4-52-1-2-2v-13z" fill="#fff"/>
<path transform="translate(73,879)" d="m0 0h5l3 4 1 5 1 42v45l-3 4h-7l-20-11-16-12-10-9-12-12-4-8-1-3v-8l5-10 9-6 11-4 15-5 16-8zm-1 18-40 12-8 5-3 3-1 5 3 7 9 10 14 11 15 11 10 3 2-49v-18z" fill="#fff"/>
<path transform="translate(262,922)" d="m0 0h18l9 3 9 8 6 12 1 4v13l-5 10-6 6h-3l-8-11 4-11v-8l-3-5-5-3h-8l-13 5-9 5-3 7 2 9 1 3 5 2 11 1 2 3v13l-4 3-10-1-9-4-8-7-5-9-1-4v-17l5-10 5-6 10-7z" fill="#fff"/>
<path transform="translate(912,989)" d="m0 0h14l3 2-2 10-4 5-12 3-4 5-1 2v9l6 7 14 8 8 2 7-3 4-5 1-7-3-6-3-4 2-4 7-6h7l4 4 3 8 1 10-2 9-6 10-8 7-9 4-9 1-12-2-12-6-10-9-6-10-1-3v-16l4-10 9-10z" fill="#fff"/>
<path transform="translate(996,347)" d="m0 0 3 1 4 8v9l-4 5-11 8-14 12-4 3 44 1 5 4 2 7v7h-75l-3-3-4-10 1-5 39-33 11-9z" fill="#fff"/>
<path transform="translate(1155,879)" d="m0 0 9 3 34 15 15 6 7 6 3 7v7l-4 10-4 6-16 12-38 28-8 2-3-6v-24l2-58 2-12zm7 18v67l13-5 11-6 9-7 11-11 6-10v-8l-5-5-9-4-35-11z" fill="#fff"/>
<path transform="translate(190,460)" d="m0 0 6 2 28 17 29 17 3 3-1 13-2 4-7 2-63 9h-5l-1-9 3-7 5-3 36-6 4-1-16-10-18-10-4-5 1-9z" fill="#fff"/>
<path transform="translate(480,613)" d="m0 0 23 1 35 4 4 4-7 1-55 1-3 1-1 2 11 3 15 3 15 6 10 7 1 1v5l-8 6-21 10 5 1-2 13-6 12h-2l-5-12-4-9v-13l-11-14-7-6-6-4-3-6 1-6 7-6 10-4zm7 26-3 3 9 1h9l-4-3-2-1zm15 4m-3 9-1 3 4 2 5-1 2-1v-2z" fill="#fff"/>
<path transform="translate(391,1086)" d="m0 0 5 2 9 9 8 7 15 14 7 6-1 4-8 8-4-2-11-9h-2l-14 14-7 8-8 8-7 8-3 2-12-11 2-4 7-8 15-16 12-13v-3l-13-12 6-7z" fill="#fff"/>
<path transform="translate(804,112)" d="m0 0 4 1 11 8-2 5-10 13-20 28 11 9 14 10 1 4-7 10-4-1-19-14-21-15 4-7 13-17 10-14 14-19z" fill="#fff"/>
<path transform="translate(974,302)" d="m0 0h2l7 14-1 3-29 14-19 9h-2l14 29-1 4-10 5h-3l-22-45 1-3 23-11 33-16z" fill="#fff"/>
<path transform="translate(1129,1441)" d="m0 0h6l5 5 12 17v2l-4 2h-9l-5-1-12 6-7 7-9 4h-14l-11-6-4 1-1 2-1 11-6 2h-5v-32l5-4 24-5h6l4 3 1 7-4 6-4 4 11 7 2-6 12-25zm-46 20-5 3-2 2v4l10-2 5-3 1-3-1-1z" fill="#fff"/>
<path transform="translate(870,1041)" d="m0 0 5 2 13 10 18 13 24 18-4 7-6 7-5-2-38-28-16-12 2-5z" fill="#fff"/>
<path transform="translate(290,238)" d="m0 0 5 2 56 38-1 4-8 11-5-2-18-12-34-23-4-4z" fill="#fff"/>
<path transform="translate(177,534)" d="m0 0 19 2 52 7-1 16-1 2-26-3-38-5-7-3-1-1v-7z" fill="#fff"/>
<path transform="translate(972,1410)" d="m0 0h15l18 2 5 3 2 3v8l-4 5-4 1 8 10 4 6-10 1-6-3-9-10-8-2v13l-9 1-2-2zm13 8-2 3 5 5 4 2 8-5-2-4z" fill="#fff"/>
<path transform="translate(209,1464)" d="m0 0h33l6 3 3 3v8l-5 4-4 1 7 8 5 4v2l-6 2-7-1-8-7-8-4-3-1-2 13h-11zm13 7-1 5 2 2h11l4-3-1-3-2-1z" fill="#fff"/>
<path transform="translate(115,1446)" d="m0 0 11 3 21 7 6 4 1 2v13l1 9-8 3h-8l-16-5-6-3-2-3zm12 11 2 5 5 3h7v-3l-5-3zm-1 13 2 5 4 3 3 1h8l-2-5-11-4z" fill="#fff"/>
<path transform="translate(936,1402)" d="m0 0 16 6 8 5 5 6 1 3v10l-4 8-6 4-4 1h-9l-11-3-7-5-5-8-1-3v-11l6-7zm0 11-5 4-1 6 2 7 7 6 8 1 5-3 2-3v-9l-4-6-5-3z" fill="#fff"/>
<path transform="translate(368,1439)" d="m0 0h13l5 5 1 2v8l-4 11-5 5-12 6-19 7h-2v-37zm-7 9-4 3-1 4v14l1 1 9-1 6-4 3-5v-7l-4-5z" fill="#fff"/>
<path transform="translate(247,1412)" d="m0 0h9l5 6 15 25v3l-2 1h-9l-5-5-7-1-10 2-7 7h-11l2-5 12-23 6-9zm3 12-4 8v2l10-1-5-9z" fill="#fff"/>
<path transform="translate(164,1459)" d="m0 0 24 2 10 2 3 3v4h-9l-16-1 3 4 16 3 4 3v2l-3 1h-15l-6-1 1 6 20 3 5 3 1 4-1 1h-8l-28-4-1-1z" fill="#fff"/>
<path transform="translate(1095,1399)" d="m0 0 8 1 7 10 11 19-2 2-9 2-8-4-8 1-6 4-8 7-5 1-1-4 15-33 4-5zm1 14-3 9 8-2-2-6z" fill="#fff"/>
<path transform="translate(356,1393)" d="m0 0h9l5 5 15 22v2l-6 2h-6l-4-4-9 1-9 3-4 5-2 3-9 2-1-4 14-28 6-8zm3 11-4 8v2l9-2-2-5z" fill="#fff"/>
<path transform="translate(314,1453)" d="m0 0h6l6 4 15 24v2l-6 2h-6l-4-4-12 1-8 4-3 5-2 1h-9l2-6 12-22 7-10zm2 12-4 7v2l8-1-1-5z" fill="#fff"/>
<path transform="translate(124,1402)" d="m0 0h8l6 3 12 21 7 14-1 2-10-2-5-6-3-3-6-2h-10l-3 1h-7l-5-1 2-5 10-16zm6 11-3 5v2l9 2-4-9z" fill="#fff"/>
<path transform="translate(1045,1461)" d="m0 0h10v22l-3 9-6 4-12 3h-10l-6-3-3-6v-24l3-3h7l1 1 1 22 1 3 2 1h8l4-1 2-27z" fill="#fff"/>
<path transform="translate(892,1447)" d="m0 0h7l3 3 1 9v9l3 8 5 4h5l2-4 1-22h7l4 3v24l-2 5-4 3h-14l-9-4-5-5-4-8z" fill="#fff"/>
<path transform="translate(168,1411)" d="m0 0h12l17 3 5 5 2 3-2 3-9-2-8-4h-9l-3 3-1 2 1 9 5 5 2 1h6l8-5 10 3-2 5-6 5-3 1h-13l-12-5-7-8-2-7 1-10 5-6z" fill="#fff"/>
<path transform="translate(879,1392)" d="m0 0 8 1 20 6 6 5 1 3v10l-5 4h-13l-5-1-2 11h-7l-3-3zm11 11-1 5 4 4 7 1 3-1-1-5-8-4z" fill="#fff"/>
<path transform="translate(65,1379)" d="m0 0 7 1 3 2 1 10 4 4 12 5v-10h7l4 4v22l-2 10-8-6-2-10-4-4-11-4v11l-7-1-4-4z" fill="#fff"/>
<path transform="translate(851,1435)" d="m0 0h12l11 4 9 8 2 5-3 3-10-6-5-4-2-1h-6l-2 7 3 9 5 4h7l6-2 9 6-3 3-6 3h-10l-10-5-9-9-3-7-1-8 2-7z" fill="#fff"/>
<path transform="translate(291,1458)" d="m0 0h5l2 3-4 4-10 3-2 5v21l-6 2h-6v-27h-14l1-5 3-2z" fill="#fff"/>
<path transform="translate(938,1457)" d="m0 0 12 2 1 28 6 2 13 2 4 4-1 4-13-1-18-3-4-4z" fill="#fff"/>
<path transform="translate(971,1463)" d="m0 0h37l3 4-2 3-11 2-1 3-1 24h-11l-1-27-10-2-3-3z" fill="#fff"/>
<path transform="translate(308,1403)" d="m0 0h1l1 29 25-5-2 6-1 2-25 6-9 1v-32l5-4z" fill="#fff"/>
<path transform="translate(1047,1409)" d="m0 0h3v29l11-2h9l3 1-2 5-13 3-13 2h-6v-36l1-1z" fill="#fff"/>
<path transform="translate(630,1325)" d="m0 0h10l5 3 2 3 1 17-3 3-3 1h-17v-17l2-7z" fill="#fff"/>
<path transform="translate(804,657)" d="m0 0 5 2 2 2 1 5v15l-4 11-8 9-14 8-8 4-4-1-1-4 8-6 15-9 5-6 2-5z" fill="#fff"/>
<path transform="translate(819,682)" d="m0 0 5 1-1 7-6 16-6 10-9 10-9 6-7 1-3-1v-8l1-2 14-7 10-9 6-9 4-10z" fill="#fff"/>
<path transform="translate(702,1328)" d="m0 0h11l6 2 3 3v7l-3 7 3 6v3h-6l-4-5-5-5-1 6-4 3-3-3 1-15 1-8z" fill="#fff"/>
<path transform="translate(725,975)" d="m0 0h3l-1 6-4 6-7 6-13 6-6 10-8 6-7 3-8 1 2-5 8-9 10-6 9-2 2-5 7-9 6-5z" fill="#fff"/>
<path transform="translate(651,1326)" d="m0 0h17l5 4-1 10-1 4 3 6v2l-4 1-5-3-4-6h-2l-2 5-2 3-3-1-1-2z" fill="#fff"/>
<path transform="translate(59,1422)" d="m0 0 6 1 4 4 1 5v14l4 7 6 4 9 4 3 3-1 4-5-1-24-12-3-4z" fill="#fff"/>
<path transform="translate(541,556)" d="m0 0h10l15 4 12 5 11 7 7 7 3 5 1 5-4-1-6-4-5-6-10-5-21-7-8-4z" fill="#fff"/>
<path transform="translate(733,1331)" d="m0 0h10l5 3 3 7-1 10-4 6-4 2h-10l-6-5-1-2v-12l3-6zm3 6-4 4v9l2 3 5-1 7-7v-2l-7-6z" fill="#fff"/>
<path transform="translate(521,1329)" d="m0 0h16l4 2 3 5v13l-5 5-8 2h-6l-3-5-2-21zm7 6v8l1 6h6l2-2v-9l-3-3z" fill="#fff"/>
<path transform="translate(541,1363)" d="m0 0h14l4 4 2 5v9l-3 5-6 3h-12l-3-20v-5zm3 5m1 1 1 14 2 1 6-4v-7l-3-4z" fill="#fff"/>
<path transform="translate(211,1413)" d="m0 0h11v37h-11z" fill="#fff"/>
<path transform="translate(678,1327)" d="m0 0h11l8 1 1 4-13 3 11 3-1 5-10 2-1 2 9 2 4 3-3 2h-14l-4-1 1-24z" fill="#fff"/>
<path transform="translate(563,1361)" d="m0 0h21l1 3-11 3h-3v2l13 1v4l-10 3-1 2 13 1v5l-16 2-5-1z" fill="#fff"/>
<path transform="translate(546,1328)" d="m0 0h20v4l-12 3 11 2 1 4-9 3-1 2 2 1 10 1v4l-3 1-17 1-1-4z" fill="#fff"/>
<path transform="translate(622,1360)" d="m0 0h9l4 4v13l-2 7-3 1h-8l-3-2-1-4v-15z" fill="#fff"/>
<path transform="translate(603,1326)" d="m0 0h19l1 4-9 2h-5v2l12 2v4l-9 2v3l10 2v4h-19z" fill="#fff"/>
<path transform="translate(96,1440)" d="m0 0 9 2 2 3v30l-5-1-6-3z" fill="#fff"/>
<path transform="translate(498,1331)" d="m0 0 7 1 3 2-1 4-6 1 6 4 2 2v8l-3 4h-7l-5-2-2-7v-13z" fill="#fff"/>
<path transform="translate(780,903)" d="m0 0 8 1 2 1-2 5-2 3-9 3-7 7-4 2h-8l-4-2v-3l16-10 7-6z" fill="#fff"/>
<path transform="translate(650,1362)" d="m0 0h3l3 16-3 7-3 2-13-7 1-7 8-9z" fill="#fff"/>
<path transform="translate(581,1327)" d="m0 0h18v3l-11 4 9 2 1 4-9 3-4 9-2-1-2-5-1-13z" fill="#fff"/>
<path transform="translate(731,1032)" d="m0 0h2v8l-4 6-8 5-11 2 3-9 6-7 8-4z" fill="#fff"/>
<path transform="translate(734,1009)" d="m0 0h2v8l-7 7-9 6h-5l-2-2 1-5 7-8 9-5z" fill="#fff"/>
<path transform="translate(749,958)" d="m0 0h7l2 1-1 6-5 5-7 3-5 1h-7l2-6 8-8z" fill="#fff"/>
<path transform="translate(607,1067)" d="m0 0h2l-1 5-6 9-13 9h-2l2-9 4-8 5-4z" fill="#fff"/>
<path transform="translate(603,998)" d="m0 0h5l-1 6-4 5-14 7-5 1 1-6 7-8 8-4z" fill="#fff"/>
<path transform="translate(736,923)" d="m0 0 12 1v6l-2 4-4 2h-13l-2-1 3-9z" fill="#fff"/>
<path transform="translate(719,918)" d="m0 0h8l-1 5-5 5-4 3-7 2h-7l1-6 7-6z" fill="#fff"/>
<path transform="translate(764,889)" d="m0 0 9 1 4 2-2 7-3 3h-12l-4-1 1-6 4-5z" fill="#fff"/>
<path transform="translate(667,1022)" d="m0 0 4 1-3 8-7 7-11 6-2-1 4-10 8-8z" fill="#fff"/>
<path transform="translate(710,907)" d="m0 0h4l-1 5-4 5-7 4-4 1h-8l2-6 5-5 7-3z" fill="#fff"/>
<path transform="translate(480,1332)" d="m0 0 4 2 3 21-3 5-3-1-2-8-1-6-6-2 1-4z" fill="#fff"/>
<path transform="translate(669,1362)" d="m0 0 4 1-1 13-2 11-5 1-1-2v-8l1-5h-6l-1-3z" fill="#fff"/>
<path transform="translate(734,986)" d="m0 0h9l-1 7-4 5-7 3-8 1 1-6 6-8z" fill="#fff"/>
<path transform="translate(649,1053)" d="m0 0h8l-3 7-4 5-9 5-6 1 1-5 5-8 5-4z" fill="#fff"/>
<path transform="translate(550,1039)" d="m0 0h3l-3 9-6 9-8 7h-2v-7l4-8 9-8z" fill="#fff"/>
<path transform="translate(622,1075)" d="m0 0h8l-4 8-8 8-7 4h-2l1-8 4-6 6-5z" fill="#fff"/>
<path transform="translate(591,1060)" d="m0 0h2v6l-4 6-7 6-5 3h-2v-7l3-6 7-6z" fill="#fff"/>
<path transform="translate(715 1e3)" d="m0 0h1l-1 8-6 7-12 5h-2l1-6 7-8z" fill="#fff"/>
<path transform="translate(640,1008)" d="m0 0h2l-1 8-6 7-11 4h-3l1-4 6-8 5-4z" fill="#fff"/>
<path transform="translate(626,1030)" d="m0 0 2 1 1 3v7l-5 6-11 6h-4l1-4 12-14z" fill="#fff"/>
<path transform="translate(757,973)" d="m0 0h10l-1 7-5 5-5 2h-8l1-6 4-6z" fill="#fff"/>
<path transform="translate(691,929)" d="m0 0h2l-1 5-6 8-8 4-9 1 4-7 8-7z" fill="#fff"/>
<path transform="translate(607,1359)" d="m0 0h4v24l-4 2-2-2v-13h-6v-4z" fill="#fff"/>
<path transform="translate(634,967)" d="m0 0h2v10l-4 6-5 4-5 2-5-1 1-4 11-11z" fill="#fff"/>
<path transform="translate(737,898)" d="m0 0 9 1 1 4-16 8-6 2v-8l4-5z" fill="#fff"/>
<path transform="translate(640,946)" d="m0 0 4 1v3l-15 15-5 3v-7l4-8 6-5z" fill="#fff"/>
<path transform="translate(606,1032)" d="m0 0 3 1v8l-3 5-6 4-8 2 1-7 6-8z" fill="#fff"/>
<path transform="translate(744,908)" d="m0 0h7l3 2-3 8-7 3-10-1 1-5 4-5z" fill="#fff"/>
<path transform="translate(667,983)" d="m0 0h4l-1 6-5 7-10 6-3 1 1-9 6-7z" fill="#fff"/>
<path transform="translate(699,1056)" d="m0 0h2l-1 8-4 5-11 7-2 1v-7l3-6 8-6z" fill="#fff"/>
<path transform="translate(548,1019)" d="m0 0 3 1v11l-4 6-7 4h-5v-4z" fill="#fff"/>
<path transform="translate(684,986)" d="m0 0h3l-1 8-7 8-8 3h-3l1-5 6-8 5-4z" fill="#fff"/>
<path transform="translate(697,959)" d="m0 0h2l-1 7-8 7-9 6h-2v-6l4-7z" fill="#fff"/>
<path transform="translate(758,992)" d="m0 0h6l-1 7-5 5-4 2h-8v-6l4-5z" fill="#fff"/>
<path transform="translate(581 1e3)" d="m0 0h1v7l-4 6-7 4-8 1 1-5 7-8z" fill="#fff"/>
<path transform="translate(675,1052)" d="m0 0h2v7l-4 6-5 4-5 2h-4l3-9 7-7z" fill="#fff"/>
<path transform="translate(568,1021)" d="m0 0h7l1 1-1 7-6 5-10 2-1-3 4-8z" fill="#fff"/>
<path transform="translate(595,1023)" d="m0 0h2l-2 9-4 6-6 3h-7l2-7 8-7z" fill="#fff"/>
<path transform="translate(703,938)" d="m0 0h9l-2 5-7 6-10 4h-3l1-5 7-8z" fill="#fff"/>
<path transform="translate(624 1e3)" d="m0 0h3l-1 6-4 5-14 7-2-1 3-8 8-6z" fill="#fff"/>
<path transform="translate(754,1015)" d="m0 0h2v9l-2 4-7 3h-8l2-6 5-6z" fill="#fff"/>
<path transform="translate(657,1008)" d="m0 0 2 4-2 8-4 6-7 4-6-1 2-4 11-12z" fill="#fff"/>
<path transform="translate(695,1077)" d="m0 0h1l-1 9-6 5-10 2 1-7 5-6 4-2z" fill="#fff"/>
<path transform="translate(704,1032)" d="m0 0h2l-1 6-4 6-5 4-5 2h-3l1-7 6-7z" fill="#fff"/>
<path transform="translate(652,974)" d="m0 0h3l-1 8-7 8-8 5v-7l5-8 6-5z" fill="#fff"/>
<path transform="translate(645,1072)" d="m0 0h2v9l-3 5-10 5h-2l1-7 6-8z" fill="#fff"/>
<path transform="translate(637,1048)" d="m0 0 1 3-4 6-9 8-5 3v-7l5-8 7-4z" fill="#fff"/>
<path transform="translate(682,1026)" d="m0 0h2v11l-5 5-8 3h-5l2-4z" fill="#fff"/>
<path transform="translate(713,1063)" d="m0 0h6l-1 6-4 6-4 2h-8l2-7 6-6z" fill="#fff"/>
<path transform="translate(727,939)" d="m0 0h2l1 4-2 7-5 4-6 2h-8l4-5 11-9z" fill="#fff"/>
<path transform="translate(529,1042)" d="m0 0h2l1 2v6l-9 13-5-1 3-10 4-8z" fill="#fff"/>
<path transform="translate(572,1055)" d="m0 0h1l-1 9-6 8-8 6-1-4 4-9 9-9z" fill="#fff"/>
<path transform="translate(766,925)" d="m0 0h2l-1 10-4 4-2 1h-9l-2-4z" fill="#fff"/>
<path transform="translate(714,962)" d="m0 0h2l-1 8-6 7-10 4-2-4 13-12z" fill="#fff"/>
<path transform="translate(606,973)" d="m0 0h2l1 5-2 7-8 7-6 1-1-2 11-14z" fill="#fff"/>
<path transform="translate(673,923)" d="m0 0h4l-2 6-4 5-9 5-4-1 3-6 4-5z" fill="#fff"/>
<path transform="translate(566,1044)" d="m0 0h3l-1 6-4 6-9 5h-2l1-6 4-6z" fill="#fff"/>
<path transform="translate(747,942)" d="m0 0h1v10l-5 4-10 2-1-4 13-11z" fill="#fff"/>
<path transform="translate(773,954)" d="m0 0h10l-3 9-2 2h-8l-1-1v-6z" fill="#fff"/>
<path transform="translate(771,940)" d="m0 0h6v7l-2 4-2 1h-9l1-5 4-6z" fill="#fff"/>
<path transform="translate(666,1075)" d="m0 0h2l1 2v8l-5 4-10 2 2-5z" fill="#fff"/>
<path transform="translate(653,952)" d="m0 0h7v4l-12 10h-2v-7l3-5z" fill="#fff"/>
<path transform="translate(678,952)" d="m0 0h5v6l-4 4-6 3h-2v-8l4-4z" fill="#fff"/>
</svg>
